<svg width="977" height="152" viewBox="0 0 977 152" fill="none" xmlns="http://www.w3.org/2000/svg">
<path d="M216.375 86.136H157.239V100.6L227.127 100.088V123H125.623V28.28H227.127L227.255 51.192H157.239V63.736H216.375V86.136ZM326.625 86.136H267.489V100.6L337.377 100.088V123H235.873V28.28H337.377L337.505 51.192H267.489V63.736H326.625V86.136ZM415.499 66.68C423.862 66.68 431.158 67.2773 437.387 68.472C443.702 69.5813 448.95 72.0133 453.131 75.768C457.398 79.5227 459.531 84.984 459.531 92.152C459.531 105.379 453.643 114.339 441.867 119.032C430.176 123.64 417.035 125.944 402.443 125.944C387.936 125.944 374.496 123.597 362.123 118.904C349.75 114.125 343.563 105.08 343.563 91.768L376.203 91.64C376.203 97.528 378.848 101.283 384.139 102.904C389.515 104.44 395.787 105.208 402.955 105.208C409.696 105.208 415.456 104.227 420.235 102.264C425.099 100.301 427.531 97.1013 427.531 92.664V92.536C427.531 90.0613 426.038 88.2267 423.051 87.032C420.064 85.8373 416.864 85.112 413.451 84.856C410.038 84.6 405.942 84.4293 401.163 84.344H391.563C382.347 84.344 374.326 83.7893 367.499 82.68C360.758 81.4853 355.083 78.9253 350.475 75C345.867 71.0747 343.563 65.272 343.563 57.592C343.563 44.28 349.536 35.6187 361.483 31.608C373.515 27.512 387.168 25.464 402.443 25.464C416.779 25.464 429.878 27.8107 441.739 32.504C453.6 37.1973 459.531 46.2427 459.531 59.64H427.403C427.403 55.3733 424.971 52.216 420.107 50.168C415.328 48.0347 409.483 46.84 402.571 46.584C395.147 46.584 388.875 47.4373 383.755 49.144C378.635 50.8507 376.075 53.5387 376.075 57.208C376.075 61.048 378.678 63.608 383.883 64.888C389.088 66.168 394.976 66.808 401.547 66.808L415.499 66.68ZM465.578 53.88V28.28H577.45L465.578 53.88ZM577.45 28.28V54.008H537.514V123H506.026V54.008H465.578V28.28H577.45ZM662.03 122.872L635.79 92.28H616.206V122.872H585.998V28.152H657.55C665.486 28.152 672.483 29.4747 678.542 32.12C684.686 34.7653 689.422 38.4773 692.75 43.256C696.163 47.9493 697.87 53.4107 697.87 59.64V60.152C697.87 68.2587 695.481 74.9573 690.702 80.248C686.009 85.5387 679.481 89.08 671.118 90.872L698.638 122.872H662.03ZM668.174 60.408C668.174 57.08 667.449 54.648 665.998 53.112C664.633 51.576 662.841 50.6373 660.622 50.296C658.403 49.9547 655.161 49.784 650.894 49.784H646.286C639.971 49.9547 629.945 50.04 616.206 50.04V70.392H650.638H650.894C655.161 70.392 658.403 70.2213 660.622 69.88C662.841 69.5387 664.633 68.6853 665.998 67.32C667.449 65.8693 668.174 63.5653 668.174 60.408ZM766.018 26.232C777.709 26.232 788.247 28.408 797.634 32.76C807.106 37.0267 814.487 42.9573 819.778 50.552C825.154 58.0613 827.842 66.552 827.842 76.024C827.842 85.4107 825.154 93.8587 819.778 101.368C814.487 108.877 807.149 114.808 797.762 119.16C788.375 123.427 777.837 125.56 766.146 125.56C754.882 125.56 744.471 123.427 734.914 119.16C725.357 114.808 717.762 108.877 712.13 101.368C706.583 93.7733 703.81 85.3253 703.81 76.024C703.81 66.6373 706.583 58.1467 712.13 50.552C717.762 42.9573 725.314 37.0267 734.786 32.76C744.343 28.408 754.754 26.232 766.018 26.232ZM766.146 101.624C770.925 101.624 775.49 100.6 779.842 98.552C784.279 96.504 787.863 93.56 790.594 89.72C793.325 85.88 794.69 81.3147 794.69 76.024C794.69 70.7333 793.282 66.168 790.466 62.328C787.735 58.4027 784.151 55.4587 779.714 53.496C775.277 51.448 770.669 50.424 765.89 50.424C761.026 50.424 756.418 51.448 752.066 53.496C747.714 55.544 744.173 58.5307 741.442 62.456C738.797 66.296 737.474 70.8187 737.474 76.024C737.474 81.3147 738.839 85.88 741.57 89.72C744.301 93.56 747.842 96.504 752.194 98.552C756.631 100.6 761.282 101.624 766.146 101.624ZM896.944 28.28H932.528L895.536 76.024L932.528 123H896.944L873.648 93.688L850.352 123H814.768L851.888 76.024L814.768 28.28H850.352L873.648 57.72L896.944 28.28Z" fill="white"/>
<path d="M108.288 75.488C108.288 84.448 105.899 92.512 101.12 99.68C96.4267 106.848 89.728 112.48 81.024 116.576C72.32 120.672 62.208 122.72 50.688 122.72V122.848H25.216V122.72H0L13 88L31.616 82.5L31.616 62L13 70L0 28H50.56C62.08 28 72.192 30.048 80.896 34.144C89.6853 38.24 96.4267 43.872 101.12 51.04C105.899 58.208 108.288 66.3573 108.288 75.488ZM51.328 97.376C58.752 97.376 64.896 95.584 69.76 92C74.7093 88.3307 77.184 82.8267 77.184 75.488C77.184 71.392 75.9893 67.68 73.6 64.352C71.2107 60.9387 68.0107 58.2933 64 56.416C60.0747 54.4533 55.8507 53.472 51.328 53.472H31.616L31.616 62L31.616 82.5V97.376H51.328Z" fill="#006FFF"/>
</svg>
